<mxfile host="app.diagrams.net" modified="2024-01-29T20:53:28.099Z" agent="Mozilla/5.0 (Windows NT 10.0; Win64; x64) AppleWebKit/537.36 (KHTML, like Gecko) Chrome/120.0.0.0 Safari/537.36" etag="QnDOQS5Rd_8HN_-tvXTr" version="23.0.2" type="device">
  <diagram name="And_Or" id="QXduNhWFy3TAvqB347PF">
    <mxGraphModel dx="1646" dy="788" grid="1" gridSize="10" guides="1" tooltips="1" connect="1" arrows="1" fold="1" page="1" pageScale="1" pageWidth="827" pageHeight="1169" math="0" shadow="0">
      <root>
        <mxCell id="0" />
        <mxCell id="1" parent="0" />
        <mxCell id="2IFxn0Wr0BlZnGPVEjan-38" value="" style="rounded=1;whiteSpace=wrap;html=1;fontSize=16;strokeWidth=7;glass=0;fillColor=none;" vertex="1" parent="1">
          <mxGeometry x="840" y="80" width="800" height="640" as="geometry" />
        </mxCell>
        <mxCell id="2IFxn0Wr0BlZnGPVEjan-37" value="Operación Lógica (AND - OR) DRAW.IO" style="text;strokeColor=none;fillColor=none;html=1;align=center;verticalAlign=middle;whiteSpace=wrap;rounded=0;fontSize=31;" vertex="1" parent="1">
          <mxGeometry x="870" y="20" width="730" height="50" as="geometry" />
        </mxCell>
        <mxCell id="2IFxn0Wr0BlZnGPVEjan-39" value="AND - OR&lt;br&gt;CUADRADO Y ROJO" style="text;strokeColor=none;align=center;fillColor=none;html=1;verticalAlign=middle;whiteSpace=wrap;rounded=0;fontSize=28;" vertex="1" parent="1">
          <mxGeometry x="900" y="105" width="680" height="75" as="geometry" />
        </mxCell>
        <mxCell id="2IFxn0Wr0BlZnGPVEjan-1" value="" style="ellipse;whiteSpace=wrap;html=1;fillColor=#d5e8d4;strokeColor=#82b366;" vertex="1" parent="1">
          <mxGeometry x="20" y="20" width="60" height="60" as="geometry" />
        </mxCell>
        <mxCell id="2IFxn0Wr0BlZnGPVEjan-2" value="" style="ellipse;whiteSpace=wrap;html=1;fillColor=#dae8fc;strokeColor=#6c8ebf;" vertex="1" parent="1">
          <mxGeometry x="160" y="20" width="60" height="60" as="geometry" />
        </mxCell>
        <mxCell id="2IFxn0Wr0BlZnGPVEjan-3" value="" style="ellipse;whiteSpace=wrap;html=1;fillColor=#f8cecc;strokeColor=#b85450;" vertex="1" parent="1">
          <mxGeometry x="300" y="20" width="60" height="60" as="geometry" />
        </mxCell>
        <mxCell id="2IFxn0Wr0BlZnGPVEjan-4" value="" style="ellipse;whiteSpace=wrap;html=1;fillColor=#d5e8d4;strokeColor=#82b366;" vertex="1" parent="1">
          <mxGeometry x="20" y="90" width="60" height="60" as="geometry" />
        </mxCell>
        <mxCell id="2IFxn0Wr0BlZnGPVEjan-5" value="" style="ellipse;whiteSpace=wrap;html=1;fillColor=#dae8fc;strokeColor=#6c8ebf;" vertex="1" parent="1">
          <mxGeometry x="160" y="90" width="60" height="60" as="geometry" />
        </mxCell>
        <mxCell id="2IFxn0Wr0BlZnGPVEjan-6" value="" style="ellipse;whiteSpace=wrap;html=1;fillColor=#f8cecc;strokeColor=#b85450;" vertex="1" parent="1">
          <mxGeometry x="300" y="90" width="60" height="60" as="geometry" />
        </mxCell>
        <mxCell id="2IFxn0Wr0BlZnGPVEjan-7" value="" style="ellipse;whiteSpace=wrap;html=1;fillColor=#d5e8d4;strokeColor=#82b366;" vertex="1" parent="1">
          <mxGeometry x="1" y="210" width="120" height="120" as="geometry" />
        </mxCell>
        <mxCell id="2IFxn0Wr0BlZnGPVEjan-8" value="" style="ellipse;whiteSpace=wrap;html=1;fillColor=#dae8fc;strokeColor=#6c8ebf;" vertex="1" parent="1">
          <mxGeometry x="141" y="210" width="120" height="120" as="geometry" />
        </mxCell>
        <mxCell id="2IFxn0Wr0BlZnGPVEjan-9" value="" style="ellipse;whiteSpace=wrap;html=1;fillColor=#f8cecc;strokeColor=#b85450;" vertex="1" parent="1">
          <mxGeometry x="281" y="210" width="120" height="120" as="geometry" />
        </mxCell>
        <mxCell id="2IFxn0Wr0BlZnGPVEjan-10" value="" style="ellipse;whiteSpace=wrap;html=1;fillColor=#d5e8d4;strokeColor=#82b366;" vertex="1" parent="1">
          <mxGeometry x="1" y="340" width="120" height="120" as="geometry" />
        </mxCell>
        <mxCell id="2IFxn0Wr0BlZnGPVEjan-11" value="" style="ellipse;whiteSpace=wrap;html=1;fillColor=#dae8fc;strokeColor=#6c8ebf;" vertex="1" parent="1">
          <mxGeometry x="141" y="340" width="120" height="120" as="geometry" />
        </mxCell>
        <mxCell id="2IFxn0Wr0BlZnGPVEjan-12" value="" style="ellipse;whiteSpace=wrap;html=1;fillColor=#f8cecc;strokeColor=#b85450;" vertex="1" parent="1">
          <mxGeometry x="281" y="340" width="120" height="120" as="geometry" />
        </mxCell>
        <mxCell id="2IFxn0Wr0BlZnGPVEjan-13" value="" style="whiteSpace=wrap;html=1;aspect=fixed;fillColor=#d5e8d4;strokeColor=#82b366;" vertex="1" parent="1">
          <mxGeometry x="530" y="20" width="60" height="60" as="geometry" />
        </mxCell>
        <mxCell id="2IFxn0Wr0BlZnGPVEjan-14" value="" style="whiteSpace=wrap;html=1;aspect=fixed;fillColor=#dae8fc;strokeColor=#6c8ebf;" vertex="1" parent="1">
          <mxGeometry x="620" y="20" width="60" height="60" as="geometry" />
        </mxCell>
        <mxCell id="2IFxn0Wr0BlZnGPVEjan-15" value="" style="whiteSpace=wrap;html=1;aspect=fixed;fillColor=#f8cecc;strokeColor=#b85450;" vertex="1" parent="1">
          <mxGeometry x="710" y="20" width="60" height="60" as="geometry" />
        </mxCell>
        <mxCell id="2IFxn0Wr0BlZnGPVEjan-16" value="" style="whiteSpace=wrap;html=1;aspect=fixed;fillColor=#d5e8d4;strokeColor=#82b366;" vertex="1" parent="1">
          <mxGeometry x="530" y="90" width="60" height="60" as="geometry" />
        </mxCell>
        <mxCell id="2IFxn0Wr0BlZnGPVEjan-17" value="" style="whiteSpace=wrap;html=1;aspect=fixed;fillColor=#dae8fc;strokeColor=#6c8ebf;" vertex="1" parent="1">
          <mxGeometry x="620" y="90" width="60" height="60" as="geometry" />
        </mxCell>
        <mxCell id="2IFxn0Wr0BlZnGPVEjan-18" value="" style="whiteSpace=wrap;html=1;aspect=fixed;fillColor=#f8cecc;strokeColor=#b85450;" vertex="1" parent="1">
          <mxGeometry x="710" y="90" width="60" height="60" as="geometry" />
        </mxCell>
        <mxCell id="2IFxn0Wr0BlZnGPVEjan-19" value="" style="whiteSpace=wrap;html=1;aspect=fixed;fillColor=#d5e8d4;strokeColor=#82b366;" vertex="1" parent="1">
          <mxGeometry x="424" y="200" width="120" height="120" as="geometry" />
        </mxCell>
        <mxCell id="2IFxn0Wr0BlZnGPVEjan-20" value="" style="whiteSpace=wrap;html=1;aspect=fixed;fillColor=#dae8fc;strokeColor=#6c8ebf;" vertex="1" parent="1">
          <mxGeometry x="564" y="200" width="120" height="120" as="geometry" />
        </mxCell>
        <mxCell id="2IFxn0Wr0BlZnGPVEjan-21" value="" style="whiteSpace=wrap;html=1;aspect=fixed;fillColor=#f8cecc;strokeColor=#b85450;" vertex="1" parent="1">
          <mxGeometry x="704" y="200" width="120" height="120" as="geometry" />
        </mxCell>
        <mxCell id="2IFxn0Wr0BlZnGPVEjan-22" value="" style="whiteSpace=wrap;html=1;aspect=fixed;fillColor=#d5e8d4;strokeColor=#82b366;" vertex="1" parent="1">
          <mxGeometry x="424" y="330" width="120" height="120" as="geometry" />
        </mxCell>
        <mxCell id="2IFxn0Wr0BlZnGPVEjan-23" value="" style="whiteSpace=wrap;html=1;aspect=fixed;fillColor=#dae8fc;strokeColor=#6c8ebf;" vertex="1" parent="1">
          <mxGeometry x="564" y="330" width="120" height="120" as="geometry" />
        </mxCell>
        <mxCell id="2IFxn0Wr0BlZnGPVEjan-24" value="" style="whiteSpace=wrap;html=1;aspect=fixed;fillColor=#f8cecc;strokeColor=#b85450;" vertex="1" parent="1">
          <mxGeometry x="704" y="330" width="120" height="120" as="geometry" />
        </mxCell>
        <mxCell id="2IFxn0Wr0BlZnGPVEjan-25" value="" style="triangle;whiteSpace=wrap;html=1;fillColor=#d5e8d4;strokeColor=#82b366;" vertex="1" parent="1">
          <mxGeometry x="31" y="505" width="60" height="60" as="geometry" />
        </mxCell>
        <mxCell id="2IFxn0Wr0BlZnGPVEjan-26" value="" style="triangle;whiteSpace=wrap;html=1;fillColor=#dae8fc;strokeColor=#6c8ebf;" vertex="1" parent="1">
          <mxGeometry x="121" y="505" width="60" height="60" as="geometry" />
        </mxCell>
        <mxCell id="2IFxn0Wr0BlZnGPVEjan-27" value="" style="triangle;whiteSpace=wrap;html=1;fillColor=#f8cecc;strokeColor=#b85450;" vertex="1" parent="1">
          <mxGeometry x="221" y="505" width="60" height="60" as="geometry" />
        </mxCell>
        <mxCell id="2IFxn0Wr0BlZnGPVEjan-28" value="" style="triangle;whiteSpace=wrap;html=1;fillColor=#d5e8d4;strokeColor=#82b366;" vertex="1" parent="1">
          <mxGeometry x="31" y="585" width="60" height="60" as="geometry" />
        </mxCell>
        <mxCell id="2IFxn0Wr0BlZnGPVEjan-29" value="" style="triangle;whiteSpace=wrap;html=1;fillColor=#dae8fc;strokeColor=#6c8ebf;" vertex="1" parent="1">
          <mxGeometry x="121" y="585" width="60" height="60" as="geometry" />
        </mxCell>
        <mxCell id="2IFxn0Wr0BlZnGPVEjan-30" value="" style="triangle;whiteSpace=wrap;html=1;fillColor=#f8cecc;strokeColor=#b85450;" vertex="1" parent="1">
          <mxGeometry x="221" y="585" width="60" height="60" as="geometry" />
        </mxCell>
        <mxCell id="2IFxn0Wr0BlZnGPVEjan-31" value="" style="triangle;whiteSpace=wrap;html=1;fillColor=#d5e8d4;strokeColor=#82b366;" vertex="1" parent="1">
          <mxGeometry x="421" y="475" width="120" height="120" as="geometry" />
        </mxCell>
        <mxCell id="2IFxn0Wr0BlZnGPVEjan-32" value="" style="triangle;whiteSpace=wrap;html=1;fillColor=#dae8fc;strokeColor=#6c8ebf;" vertex="1" parent="1">
          <mxGeometry x="546" y="475" width="120" height="120" as="geometry" />
        </mxCell>
        <mxCell id="2IFxn0Wr0BlZnGPVEjan-33" value="" style="triangle;whiteSpace=wrap;html=1;fillColor=#f8cecc;strokeColor=#b85450;" vertex="1" parent="1">
          <mxGeometry x="671" y="475" width="120" height="120" as="geometry" />
        </mxCell>
        <mxCell id="2IFxn0Wr0BlZnGPVEjan-34" value="" style="triangle;whiteSpace=wrap;html=1;fillColor=#d5e8d4;strokeColor=#82b366;" vertex="1" parent="1">
          <mxGeometry x="421" y="610" width="120" height="120" as="geometry" />
        </mxCell>
        <mxCell id="2IFxn0Wr0BlZnGPVEjan-35" value="" style="triangle;whiteSpace=wrap;html=1;fillColor=#dae8fc;strokeColor=#6c8ebf;" vertex="1" parent="1">
          <mxGeometry x="546" y="610" width="120" height="120" as="geometry" />
        </mxCell>
        <mxCell id="2IFxn0Wr0BlZnGPVEjan-36" value="" style="triangle;whiteSpace=wrap;html=1;fillColor=#f8cecc;strokeColor=#b85450;" vertex="1" parent="1">
          <mxGeometry x="671" y="610" width="120" height="120" as="geometry" />
        </mxCell>
      </root>
    </mxGraphModel>
  </diagram>
</mxfile>
